<svg width="132" height="60" viewBox="0 0 132 60" fill="none" xmlns="http://www.w3.org/2000/svg">
<g clip-path="url(#clip0_4105_6275)">
<path d="M12.0373 43.3187C10.9495 42.7087 9.6971 42.4023 8.27734 42.4023C7.05596 42.4023 5.96819 42.6682 5.01673 43.1972C4.43911 43.5185 3.93706 43.9436 3.50789 44.4659V42.5629H0.30127V59.9983H3.66984V55.1802C4.08147 55.6472 4.55112 56.0345 5.08421 56.3328C6.04512 56.8713 7.10994 57.1412 8.27734 57.1412C9.69576 57.1412 10.9495 56.8362 12.0373 56.2248C13.1237 55.6148 13.9861 54.7565 14.6245 53.6512C15.2615 52.5459 15.5813 51.2489 15.5813 49.7576C15.5813 48.2663 15.2628 46.9734 14.6245 45.8775C13.9861 44.7817 13.1237 43.9287 12.0373 43.3174V43.3187ZM11.5933 52.1585C11.2154 52.8414 10.7079 53.3623 10.0709 53.7213C9.43258 54.0817 8.71056 54.2598 7.90215 54.2598C7.09375 54.2598 6.36632 54.0803 5.71987 53.7213C5.07341 53.3623 4.56057 52.8414 4.18404 52.1585C3.80615 51.4756 3.61856 50.6767 3.61856 49.7603C3.61856 48.8439 3.8075 48.022 4.18404 47.3486C4.56192 46.6751 5.07341 46.1582 5.71987 45.7993C6.36632 45.4403 7.09375 45.2608 7.90215 45.2608C8.71056 45.2608 9.43394 45.4403 10.0709 45.7993C10.7079 46.1596 11.2167 46.6751 11.5933 47.3486C11.9712 48.022 12.1588 48.8264 12.1588 49.7603C12.1588 50.6942 11.9698 51.4756 11.5933 52.1585Z" fill="#F4F4F4"/>
<path d="M20.4627 44.6724V42.5643H17.2561V56.955H20.6247V49.9749C20.6247 48.5025 21.0026 47.3918 21.757 46.6468C22.5114 45.9018 23.5263 45.528 24.8017 45.528C24.9272 45.528 25.0527 45.532 25.1795 45.5415C25.305 45.5509 25.44 45.5725 25.5831 45.609V42.4023C24.1997 42.4023 23.0458 42.6547 22.12 43.1568C21.4304 43.5319 20.8784 44.0367 20.4627 44.6724Z" fill="#F4F4F4"/>
<path d="M37.5931 43.3457C36.4338 42.7168 35.1085 42.4023 33.6186 42.4023C32.1287 42.4023 30.8331 42.7168 29.6846 43.3457C28.5347 43.9746 27.6264 44.8411 26.9624 45.9464C26.2971 47.0517 25.9651 48.323 25.9651 49.759C25.9651 51.1949 26.2971 52.4446 26.9624 53.5594C27.6264 54.6741 28.5347 55.5487 29.6846 56.187C30.8344 56.8254 32.1462 57.1439 33.6186 57.1439C35.091 57.1439 36.4352 56.8254 37.5931 56.187C38.7524 55.55 39.6594 54.6741 40.3153 53.5594C40.9712 52.446 41.2991 51.1787 41.2991 49.759C41.2991 48.3392 40.9712 47.0287 40.3153 45.9315C39.6594 44.8357 38.7524 43.9733 37.5931 43.3444V43.3457ZM37.3516 52.1585C36.9831 52.8414 36.4757 53.3624 35.8292 53.7213C35.1828 54.0817 34.4459 54.2598 33.62 54.2598C32.794 54.2598 32.0882 54.0803 31.4512 53.7213C30.8128 53.3624 30.3054 52.8414 29.9288 52.1585C29.5509 51.4756 29.3634 50.6767 29.3634 49.7603C29.3634 48.8439 29.5523 48.022 29.9288 47.3486C30.3067 46.6751 30.8128 46.1582 31.4512 45.7993C32.0882 45.4403 32.821 45.2608 33.6469 45.2608C34.4729 45.2608 35.1828 45.4403 35.8306 45.7993C36.477 46.1596 36.9845 46.6751 37.3529 47.3486C37.7214 48.022 37.9049 48.8264 37.9049 49.7603C37.9049 50.6942 37.72 51.4756 37.3529 52.1585H37.3516Z" fill="#F4F4F4"/>
<path d="M52.3131 53.7759C51.6937 54.0998 51.0243 54.2604 50.3049 54.2604C49.479 54.2604 48.7327 54.0809 48.0687 53.7219C47.4033 53.363 46.8824 52.8461 46.5058 52.1726C46.128 51.4992 45.9404 50.6948 45.9404 49.7609C45.9404 48.827 46.1293 48.0226 46.5058 47.3492C46.8837 46.6757 47.4047 46.1588 48.0687 45.7999C48.7327 45.4409 49.479 45.2614 50.3049 45.2614C51.0229 45.2614 51.6923 45.4233 52.3131 45.7459C52.9326 46.0698 53.4589 46.5718 53.8894 47.2547L56.4766 45.7459C55.9192 44.65 55.1068 43.8187 54.0379 43.2532C52.969 42.6877 51.7342 42.4043 50.3319 42.4043C48.8231 42.4043 47.4789 42.7187 46.3034 43.3477C45.1266 43.9766 44.2062 44.843 43.5408 45.9483C42.8755 47.0536 42.5435 48.3249 42.5435 49.7609C42.5435 51.1969 42.8755 52.4466 43.5408 53.5613C44.2048 54.6761 45.1266 55.5506 46.3034 56.189C47.4802 56.8273 48.8231 57.1458 50.3319 57.1458C51.7328 57.1458 52.9677 56.8543 54.0379 56.27C55.1068 55.6869 55.9192 54.8556 56.4766 53.7773L53.8894 52.2684C53.4576 52.9513 52.9326 53.4547 52.3131 53.7773V53.7759Z" fill="#F4F4F4"/>
<path d="M68.0169 49.8121C67.4865 49.5422 66.8981 49.3317 66.2516 49.1792C65.6052 49.0267 64.9574 48.9012 64.3109 48.8013C63.6645 48.7028 63.076 48.5813 62.5456 48.4369C62.0153 48.2939 61.5847 48.0914 61.2527 47.8309C60.9194 47.5705 60.7534 47.198 60.7534 46.7121C60.7534 46.1372 61.0314 45.6662 61.5888 45.2978C62.1448 44.9293 62.9897 44.7458 64.122 44.7458C64.8224 44.7458 65.5228 44.8268 66.2246 44.9887C66.9251 45.1507 67.5985 45.4462 68.2463 45.8781L69.3516 43.8294C68.7403 43.4164 67.9548 43.0979 66.9939 42.8726C66.033 42.6485 65.0842 42.5352 64.1503 42.5352C62.9276 42.5352 61.8736 42.7106 60.9842 43.0601C60.0948 43.411 59.4079 43.909 58.922 44.5555C58.4375 45.2019 58.1946 45.9564 58.1946 46.8188C58.1946 47.6811 58.3565 48.306 58.6791 48.7999C59.003 49.2939 59.4335 49.6799 59.9733 49.9592C60.5118 50.2386 61.1056 50.4532 61.7521 50.6057C62.3985 50.7582 63.0463 50.8851 63.6928 50.9836C64.3392 51.0821 64.9277 51.1955 65.4581 51.321C65.9884 51.4465 66.4149 51.6354 66.7388 51.8865C67.0627 52.1388 67.2233 52.4884 67.2233 52.9378C67.2233 53.5491 66.9575 54.0256 66.4284 54.3656C65.898 54.7071 65.0316 54.8771 63.8278 54.8771C62.8938 54.8771 61.9775 54.7341 61.0786 54.4453C60.1798 54.1578 59.4254 53.8083 58.8154 53.3939L57.7371 55.4426C58.3471 55.9096 59.1879 56.305 60.2567 56.6289C61.3256 56.9528 62.4525 57.1134 63.6388 57.1134C64.9142 57.1134 66.01 56.938 66.9264 56.5884C67.8428 56.2375 68.5527 55.749 69.0561 55.1201C69.5581 54.4912 69.8105 53.7462 69.8105 52.8838C69.8105 52.0754 69.6445 51.4289 69.3125 50.9431C68.9805 50.4586 68.5486 50.0807 68.0196 49.8108L68.0169 49.8121Z" fill="#F4F4F4"/>
<path d="M76.3142 54.9329C75.5948 54.9329 75.0428 54.7264 74.6569 54.3135C74.2695 53.9005 74.0779 53.308 74.0779 52.5347V44.8002H78.1739V42.6706H74.0779V39.5449H71.4907V52.6427C71.4907 54.08 71.8862 55.1853 72.677 55.9573C73.4679 56.7306 74.5813 57.1166 76.0186 57.1166C76.6111 57.1166 77.1819 57.0356 77.7299 56.8736C78.2778 56.7117 78.7488 56.4607 79.1442 56.1192L78.3358 54.2595C77.7974 54.7089 77.1226 54.9329 76.3142 54.9329Z" fill="#F4F4F4"/>
<path d="M91.0166 50.0549C91.0166 51.0617 90.8371 51.9187 90.4781 52.6285C90.1192 53.3384 89.6063 53.8769 88.9423 54.2453C88.277 54.6138 87.4956 54.7973 86.5981 54.7973C85.3753 54.7973 84.4279 54.4464 83.7545 53.746C83.081 53.0456 82.7437 51.9942 82.7437 50.5934V42.6699H80.1565V50.8889C80.1565 52.2898 80.4129 53.4531 80.9244 54.379C81.4359 55.3048 82.1552 55.9917 83.0811 56.4411C84.0055 56.8905 85.0798 57.1146 86.3012 57.1146C87.5225 57.1146 88.5199 56.8541 89.4538 56.3332C90.1488 55.9458 90.7143 55.437 91.1516 54.8108V56.9526H93.6038V42.6699H91.0166V50.0535V50.0549Z" fill="#F4F4F4"/>
<path d="M107.537 44.8427C107.052 44.2178 106.479 43.7158 105.812 43.346C104.842 42.8075 103.755 42.5376 102.552 42.5376C101.168 42.5376 99.9334 42.8439 98.8456 43.4539C97.7579 44.0653 96.9009 44.9142 96.272 46.0006C95.6431 47.0884 95.3286 48.3583 95.3286 49.8145C95.3286 51.2707 95.6431 52.5461 96.272 53.642C96.9009 54.7378 97.7579 55.5921 98.8456 56.2021C99.9321 56.8135 101.167 57.1185 102.552 57.1185C103.792 57.1185 104.896 56.8446 105.866 56.2966C106.564 55.9025 107.156 55.3681 107.645 54.7001V56.9566H110.124V39.5469H107.537V44.844V44.8427ZM106.931 52.4678C106.509 53.2317 105.934 53.8201 105.206 54.2331C104.479 54.6461 103.665 54.8526 102.768 54.8526C101.87 54.8526 101.033 54.6461 100.315 54.2331C99.596 53.8201 99.0224 53.2317 98.5906 52.4678C98.16 51.704 97.9441 50.82 97.9441 49.8132C97.9441 48.8064 98.16 47.9049 98.5906 47.1586C99.0224 46.4136 99.596 45.8333 100.315 45.4203C101.033 45.0073 101.851 44.8008 102.768 44.8008C103.684 44.8008 104.479 45.0073 105.206 45.4203C105.934 45.8333 106.509 46.4136 106.931 47.1586C107.353 47.9049 107.564 48.7889 107.564 49.8132C107.564 50.8375 107.352 51.704 106.931 52.4678Z" fill="#F4F4F4"/>
<path d="M115.024 42.6719H112.437V56.9546H115.024V42.6719Z" fill="#F4F4F4"/>
<path d="M130.742 46.0271C130.103 44.9407 129.223 44.0864 128.101 43.467C126.978 42.8475 125.706 42.5371 124.288 42.5371C122.87 42.5371 121.575 42.8475 120.462 43.467C119.347 44.0864 118.467 44.9448 117.821 46.0406C117.174 47.1365 116.85 48.3943 116.85 49.8141C116.85 51.2339 117.174 52.4687 117.821 53.574C118.467 54.6794 119.347 55.5458 120.462 56.1747C121.575 56.8036 122.851 57.1181 124.288 57.1181C125.725 57.1181 126.978 56.8036 128.101 56.1747C129.223 55.5458 130.103 54.6834 130.742 53.5875C131.379 52.4917 131.699 51.2339 131.699 49.8141C131.699 48.3943 131.38 47.1149 130.742 46.0271ZM128.465 52.4674C128.051 53.2312 127.481 53.8197 126.754 54.2326C126.026 54.6456 125.204 54.8521 124.288 54.8521C123.372 54.8521 122.554 54.6456 121.836 54.2326C121.116 53.8197 120.543 53.2312 120.111 52.4674C119.68 51.7035 119.464 50.8195 119.464 49.8127C119.464 48.8059 119.68 47.9044 120.111 47.1581C120.543 46.4131 121.116 45.8328 121.836 45.4198C122.554 45.0069 123.372 44.8004 124.288 44.8004C125.204 44.8004 126.026 45.0069 126.754 45.4198C127.481 45.8328 128.052 46.4131 128.465 47.1581C128.878 47.9044 129.084 48.7884 129.084 49.8127C129.084 50.8371 128.878 51.7035 128.465 52.4674Z" fill="#F4F4F4"/>
<path d="M57.9529 29.2699V0H70.3313C74.8916 0 78.3546 3.04602 78.5705 7.24459V7.26618C78.6016 8.73049 78.6043 9.87089 78.5773 10.2407L78.5746 10.2852C78.5638 10.6375 78.5274 11.0072 78.4653 11.3824L78.4599 11.4243C77.6407 18.0912 74.4152 22.3114 71.8536 24.6786C68.7442 27.5532 64.8506 29.2685 61.4389 29.2685H57.9529V29.2699Z" fill="#0277EE"/>
<path d="M77.5247 10.019C77.5247 13.9139 74.368 17.0692 70.4744 17.0692H65.848V23.0911C65.848 25.9158 63.5591 28.2047 60.7345 28.2047H59.0259V1.06445H70.3395C74.4625 1.06445 77.4653 3.78252 77.5233 7.54788C77.526 7.58432 77.526 10.019 77.526 10.019H77.5247Z" fill="#0277EE"/>
<path d="M77.5247 7.66124V10.019C77.5247 13.9139 74.368 17.0692 70.4744 17.0692H65.848V23.0911C65.848 25.9158 63.5591 28.2047 60.7345 28.2047H59.0259V1.06445H70.3395C74.4625 1.06445 77.4653 3.78252 77.5233 7.54788C77.526 7.58432 77.526 7.62345 77.526 7.65989L77.5247 7.66124Z" fill="#F4F4F4"/>
<path d="M66.7265 5.51228H62.5886V4.62695H66.3553L66.4228 4.7889L66.7265 5.51228Z" fill="#0277EE"/>
<path d="M73.9617 4.62695V5.51228H72.6769L70.5688 4.62695H73.9617Z" fill="#0277EE"/>
<path d="M67.8534 8.19723H62.5886V7.31055H67.4822L67.8534 8.19723Z" fill="#0277EE"/>
<path d="M68.9681 10.8521H62.5886V9.9668H68.597L68.9681 10.8521Z" fill="#0277EE"/>
<path d="M73.9617 9.9668V10.8521H72.7241L72.9549 9.98299L73.017 9.9668H73.9617Z" fill="#0277EE"/>
<path d="M69.2111 12.6211H62.5886V13.5064H69.2111V12.6211Z" fill="#0277EE"/>
<path d="M76.1427 8.0783L72.1182 9.14583L71.0507 13.169L67.365 4.39258L76.1427 8.0783Z" fill="#0277EE"/>
</g>
<defs>
<clipPath id="clip0_4105_6275">
<rect width="131.397" height="60" fill="white" transform="translate(0.30127)"/>
</clipPath>
</defs>
</svg>
